<?xml version="1.0" encoding="UTF-8" standalone="no"?>
<!DOCTYPE svg PUBLIC "-//W3C//DTD SVG 1.1//EN" "http://www.w3.org/Graphics/SVG/1.1/DTD/svg11.dtd">
<!-- Generiert durch Microsoft Visio, SVG Export SmartCity_Authentifizierung_Overview.svg Page-1 -->
<svg xmlns="http://www.w3.org/2000/svg" xmlns:xlink="http://www.w3.org/1999/xlink" xmlns:ev="http://www.w3.org/2001/xml-events"
		xmlns:v="http://schemas.microsoft.com/visio/2003/SVGExtensions/" width="8.06302in" height="7.04706in"
		viewBox="0 0 580.537 507.388" xml:space="preserve" color-interpolation-filters="sRGB" class="st13">
	<v:documentProperties v:langID="1031" v:metric="true" v:viewMarkup="false">
		<v:userDefs>
			<v:ud v:nameU="msvSubprocessMaster" v:prompt="" v:val="VT4(Rectangle)"/>
			<v:ud v:nameU="msvNoAutoConnect" v:val="VT0(1):26"/>
		</v:userDefs>
	</v:documentProperties>

	<style type="text/css">
	<![CDATA[
		.st1 {visibility:visible}
		.st2 {fill:#4672c4;fill-opacity:0.098;stroke:#4672c4;stroke-linecap:round;stroke-linejoin:round;stroke-opacity:0.098}
		.st3 {fill:#ffffff;stroke:#4672c4;stroke-linecap:round;stroke-linejoin:round;stroke-width:0.5}
		.st4 {fill:#4672c4;font-family:Calibri;font-size:0.833336em;font-weight:bold}
		.st5 {fill:#4672c4;font-family:Calibri;font-size:1.00001em;font-weight:bold}
		.st6 {fill:#395ea3;stroke:none;stroke-linecap:butt;stroke-width:0.75}
		.st7 {marker-end:url(#mrkr4-84);stroke:#4672c4;stroke-linecap:round;stroke-linejoin:round;stroke-width:1}
		.st8 {fill:#4672c4;fill-opacity:1;stroke:#4672c4;stroke-opacity:1;stroke-width:0.28409090909091}
		.st9 {fill:#ed7d31;stroke:#c7c8c8;stroke-width:0.25}
		.st10 {fill:#feffff;font-family:Calibri;font-size:1.5em}
		.st11 {fill:#ffffff;stroke:#70ad47;stroke-width:0.25}
		.st12 {fill:#849e33;font-family:Calibri;font-size:1.00001em}
		.st13 {fill:none;fill-rule:evenodd;font-size:12px;overflow:visible;stroke-linecap:square;stroke-miterlimit:3}
	]]>
	</style>

	<defs id="Markers">
		<g id="lend4">
			<path d="M 2 1 L 0 0 L 2 -1 L 2 1 " style="stroke:none"/>
		</g>
		<marker id="mrkr4-84" class="st8" v:arrowType="4" v:arrowSize="2" v:setback="7.04" refX="-7.04" orient="auto"
				markerUnits="strokeWidth" overflow="visible">
			<use xlink:href="#lend4" transform="scale(-3.52,-3.52) "/>
		</marker>
	</defs>
	<g v:mID="0" v:index="1" v:groupContext="foregroundPage">
		<v:userDefs>
			<v:ud v:nameU="msvThemeOrder" v:val="VT0(0):26"/>
			<v:ud v:nameU="NodeCount" v:prompt="" v:val="VT0(20):26"/>
			<v:ud v:nameU="CompCount" v:prompt="" v:val="VT0(20):26"/>
		</v:userDefs>
		<title>Zeichenblatt-1</title>
		<v:pageProperties v:drawingScale="0.0393701" v:pageScale="0.0393701" v:drawingUnits="24" v:shadowOffsetX="8.50394"
				v:shadowOffsetY="-8.50394"/>
		<v:layer v:name="Container" v:index="0"/>
		<v:layer v:name="Verbinder" v:index="1"/>
		<v:layer v:name="Azure" v:index="2"/>
		<g id="group1-1" transform="translate(18.25,-127.784)" v:mID="1" v:groupContext="group" v:layerMember="0">
			<v:userDefs>
				<v:ud v:nameU="UMLShapeType" v:val="VT0(26):26"/>
				<v:ud v:nameU="UMLObjectGUID" v:val="VT4()"/>
				<v:ud v:nameU="UMLError" v:val="VT0(0):26"/>
				<v:ud v:nameU="UMLVersion" v:val="VT4(2.X)"/>
				<v:ud v:nameU="visDescription" v:val="VT4(Represents a run-time computational or physical resource.)"/>
				<v:ud v:nameU="visVersion" v:val="VT0(17):26"/>
				<v:ud v:nameU="Stereotype" v:prompt="" v:val="VT0(1):5"/>
				<v:ud v:nameU="Label" v:prompt="" v:val="VT0(1):26"/>
				<v:ud v:nameU="MinWidth" v:prompt="" v:val="VT0(2.4015748031496):24"/>
				<v:ud v:nameU="MinHeight" v:prompt="" v:val="VT0(0.70866141732283):24"/>
				<v:ud v:nameU="msvStructureType" v:prompt="" v:val="VT4(Container)"/>
				<v:ud v:nameU="msvShapeCategories" v:prompt="" v:val="VT4(ContainerStyleDefaults)"/>
				<v:ud v:nameU="msvSDContainerMargin" v:prompt="" v:val="VT0(0.11811023622047):24"/>
				<v:ud v:nameU="msvSDContainerResize" v:prompt="" v:val="VT0(1):26"/>
				<v:ud v:nameU="msvSDContainerLocked" v:prompt="" v:val="VT0(0):5"/>
				<v:ud v:nameU="msvSDContainerNoHighlight" v:prompt="" v:val="VT0(0):5"/>
				<v:ud v:nameU="msvSDContainerNoRibbon" v:prompt="" v:val="VT0(0):5"/>
				<v:ud v:nameU="msvSDContainerStyle" v:prompt="" v:val="VT0(2):26"/>
				<v:ud v:nameU="msvSDContainerStyleCount" v:prompt="" v:val="VT0(14):26"/>
				<v:ud v:nameU="msvSDContainerRequiredCategories" v:prompt="" v:val="VT0(0):26"/>
				<v:ud v:nameU="msvSDContainerExcludedCategories" v:prompt="" v:val="VT4(DoNotContain)"/>
				<v:ud v:nameU="msvSDHeadingStyle" v:prompt="" v:val="VT0(1):26"/>
				<v:ud v:nameU="msvSDHeadingStyleCount" v:prompt="" v:val="VT0(4):26"/>
				<v:ud v:nameU="HeadingSide" v:prompt="" v:val="VT0(0):26"/>
				<v:ud v:nameU="HeadingSpan" v:prompt="" v:val="VT0(1):26"/>
				<v:ud v:nameU="HeadingAlign" v:prompt="" v:val="VT0(2):26"/>
				<v:ud v:nameU="RTL" v:prompt="" v:val="VT0(0):5"/>
				<v:ud v:nameU="StereotypeOffset" v:prompt="" v:val="VT0(0.049299212598425):24"/>
				<v:ud v:nameU="Label" v:prompt="" v:val="VT0(16):26"/>
			</v:userDefs>
			<title>Knoten.289</title>
			<g id="shape2-2" v:mID="2" v:groupContext="shape" v:layerMember="0" transform="translate(202.632,0)">
				<title>Tabelle.2</title>
				<g id="shadow2-3" v:groupContext="shadow" v:shadowOffsetX="2.12399" v:shadowOffsetY="-2.12399" v:shadowType="1"
						transform="matrix(1,0,0,1,2.12399,2.12399)" class="st1">
					<path d="M0 507.39 L9 498.39 L9 380.65 L0 389.65 L0 507.39 Z" class="st2"/>
				</g>
				<path d="M0 507.39 L9 498.39 L9 380.65 L0 389.65 L0 507.39 Z" class="st3"/>
			</g>
			<g id="shape3-6" v:mID="3" v:groupContext="shape" v:layerMember="0" transform="translate(0,-117.737)">
				<title>Tabelle.3</title>
				<g id="shadow3-7" v:groupContext="shadow" v:shadowOffsetX="2.12399" v:shadowOffsetY="-2.12399" v:shadowType="1"
						transform="matrix(1,0,0,1,2.12399,2.12399)" class="st1">
					<path d="M0 507.39 L202.63 507.39 L211.63 498.39 L9 498.39 L0 507.39 Z" class="st2"/>
				</g>
				<path d="M0 507.39 L202.63 507.39 L211.63 498.39 L9 498.39 L0 507.39 Z" class="st3"/>
			</g>
			<g id="shape4-10" v:mID="4" v:groupContext="shape" v:layerMember="0">
				<title>Name</title>
				<v:textBlock v:margins="rect(4,4,4,4)" v:tabSpace="42.5197"/>
				<g id="shadow4-11" v:groupContext="shadow" v:shadowOffsetX="2.12399" v:shadowOffsetY="-2.12399" v:shadowType="1"
						transform="matrix(1,0,0,1,2.12399,2.12399)" class="st1">
					<rect x="0" y="389.651" width="202.632" height="117.737" class="st2"/>
				</g>
				<rect x="0" y="389.651" width="202.632" height="117.737" class="st3"/>
			</g>
			<g id="shape5-14" v:mID="5" v:groupContext="shape" v:layerMember="0" transform="translate(0,-94.184)">
				<title>Class.11</title>
				<desc>&#60;&#60;Gerät/Umgebung&#62;&#62;</desc>
				<v:textBlock v:margins="rect(4,4,4,4)" v:tabSpace="42.5197"/>
				<v:textRect cx="101.316" cy="497.386" width="131.72" height="20.0036"/>
				<g id="shadow5-15" v:groupContext="shadow" v:shadowOffsetX="2.12399" v:shadowOffsetY="-2.12399" v:shadowType="1"
						transform="matrix(1,0,0,1,2.12399,2.12399)" class="st1"/>
				<text x="54.89" y="500.39" class="st4" v:langID="1031"><v:paragraph v:horizAlign="1"/><v:tabList/>&#60;&#60;Gerät/Umgebung&#62;&#62;</text>			</g>
			<g id="shape6-17" v:mID="6" v:groupContext="shape" v:layerMember="0" transform="translate(0,-75.3299)">
				<title>Tabelle.6</title>
				<desc>Firebase Server</desc>
				<v:userDefs>
					<v:ud v:nameU="Label" v:prompt="" v:val="VT0(1):26"/>
					<v:ud v:nameU="Label" v:prompt="" v:val="VT0(16):26"/>
				</v:userDefs>
				<v:textBlock v:margins="rect(4,4,4,4)" v:tabSpace="42.5197"/>
				<v:textRect cx="101.316" cy="496.186" width="141.85" height="22.4037"/>
				<g id="shadow6-18" v:groupContext="shadow" v:shadowOffsetX="2.12399" v:shadowOffsetY="-2.12399" v:shadowType="1"
						transform="matrix(1,0,0,1,2.12399,2.12399)" class="st1"/>
				<text x="63" y="499.79" class="st5" v:langID="1031"><v:paragraph v:horizAlign="1"/><v:tabList/>Firebase Server</text>			</g>
		</g>
		<g id="group15-20" transform="translate(18.25,-362.401)" v:mID="15" v:groupContext="group" v:layerMember="0">
			<v:userDefs>
				<v:ud v:nameU="UMLShapeType" v:val="VT0(26):26"/>
				<v:ud v:nameU="UMLObjectGUID" v:val="VT4()"/>
				<v:ud v:nameU="UMLError" v:val="VT0(0):26"/>
				<v:ud v:nameU="UMLVersion" v:val="VT4(2.X)"/>
				<v:ud v:nameU="visDescription" v:val="VT4(Represents a run-time computational or physical resource.)"/>
				<v:ud v:nameU="visVersion" v:val="VT0(17):26"/>
				<v:ud v:nameU="Stereotype" v:prompt="" v:val="VT0(1):5"/>
				<v:ud v:nameU="Label" v:prompt="" v:val="VT0(1):26"/>
				<v:ud v:nameU="MinWidth" v:prompt="" v:val="VT0(2.4015748031496):24"/>
				<v:ud v:nameU="MinHeight" v:prompt="" v:val="VT0(0.70866141732283):24"/>
				<v:ud v:nameU="msvStructureType" v:prompt="" v:val="VT4(Container)"/>
				<v:ud v:nameU="msvShapeCategories" v:prompt="" v:val="VT4(ContainerStyleDefaults)"/>
				<v:ud v:nameU="msvSDContainerMargin" v:prompt="" v:val="VT0(0.11811023622047):24"/>
				<v:ud v:nameU="msvSDContainerResize" v:prompt="" v:val="VT0(1):26"/>
				<v:ud v:nameU="msvSDContainerLocked" v:prompt="" v:val="VT0(0):5"/>
				<v:ud v:nameU="msvSDContainerNoHighlight" v:prompt="" v:val="VT0(0):5"/>
				<v:ud v:nameU="msvSDContainerNoRibbon" v:prompt="" v:val="VT0(0):5"/>
				<v:ud v:nameU="msvSDContainerStyle" v:prompt="" v:val="VT0(2):26"/>
				<v:ud v:nameU="msvSDContainerStyleCount" v:prompt="" v:val="VT0(14):26"/>
				<v:ud v:nameU="msvSDContainerRequiredCategories" v:prompt="" v:val="VT0(0):26"/>
				<v:ud v:nameU="msvSDContainerExcludedCategories" v:prompt="" v:val="VT4(DoNotContain)"/>
				<v:ud v:nameU="msvSDHeadingStyle" v:prompt="" v:val="VT0(1):26"/>
				<v:ud v:nameU="msvSDHeadingStyleCount" v:prompt="" v:val="VT0(4):26"/>
				<v:ud v:nameU="HeadingSide" v:prompt="" v:val="VT0(0):26"/>
				<v:ud v:nameU="HeadingSpan" v:prompt="" v:val="VT0(1):26"/>
				<v:ud v:nameU="HeadingAlign" v:prompt="" v:val="VT0(2):26"/>
				<v:ud v:nameU="RTL" v:prompt="" v:val="VT0(0):5"/>
				<v:ud v:nameU="StereotypeOffset" v:prompt="" v:val="VT0(0.049299212598425):24"/>
				<v:ud v:nameU="Label" v:prompt="" v:val="VT0(17):26"/>
			</v:userDefs>
			<title>Knoten.15</title>
			<g id="shape16-21" v:mID="16" v:groupContext="shape" v:layerMember="0" transform="translate(202.632,0)">
				<title>Tabelle.16</title>
				<g id="shadow16-22" v:groupContext="shadow" v:shadowOffsetX="2.12399" v:shadowOffsetY="-2.12399" v:shadowType="1"
						transform="matrix(1,0,0,1,2.12399,2.12399)" class="st1">
					<path d="M0 507.39 L9 498.39 L9 380.65 L0 389.65 L0 507.39 Z" class="st2"/>
				</g>
				<path d="M0 507.39 L9 498.39 L9 380.65 L0 389.65 L0 507.39 Z" class="st3"/>
			</g>
			<g id="shape17-25" v:mID="17" v:groupContext="shape" v:layerMember="0" transform="translate(0,-117.737)">
				<title>Tabelle.17</title>
				<g id="shadow17-26" v:groupContext="shadow" v:shadowOffsetX="2.12399" v:shadowOffsetY="-2.12399" v:shadowType="1"
						transform="matrix(1,0,0,1,2.12399,2.12399)" class="st1">
					<path d="M0 507.39 L202.63 507.39 L211.63 498.39 L9 498.39 L0 507.39 Z" class="st2"/>
				</g>
				<path d="M0 507.39 L202.63 507.39 L211.63 498.39 L9 498.39 L0 507.39 Z" class="st3"/>
			</g>
			<g id="shape18-29" v:mID="18" v:groupContext="shape" v:layerMember="0">
				<title>Name</title>
				<v:textBlock v:margins="rect(4,4,4,4)" v:tabSpace="42.5197"/>
				<g id="shadow18-30" v:groupContext="shadow" v:shadowOffsetX="2.12399" v:shadowOffsetY="-2.12399" v:shadowType="1"
						transform="matrix(1,0,0,1,2.12399,2.12399)" class="st1">
					<rect x="0" y="389.651" width="202.632" height="117.737" class="st2"/>
				</g>
				<rect x="0" y="389.651" width="202.632" height="117.737" class="st3"/>
			</g>
			<g id="shape19-33" v:mID="19" v:groupContext="shape" v:layerMember="0" transform="translate(0,-94.184)">
				<title>Class.11</title>
				<desc>&#60;&#60;Gerät/Umgebung&#62;&#62;</desc>
				<v:textBlock v:margins="rect(4,4,4,4)" v:tabSpace="42.5197"/>
				<v:textRect cx="101.316" cy="497.386" width="131.72" height="20.0036"/>
				<g id="shadow19-34" v:groupContext="shadow" v:shadowOffsetX="2.12399" v:shadowOffsetY="-2.12399" v:shadowType="1"
						transform="matrix(1,0,0,1,2.12399,2.12399)" class="st1"/>
				<text x="54.89" y="500.39" class="st4" v:langID="1031"><v:paragraph v:horizAlign="1"/><v:tabList/>&#60;&#60;Gerät/Umgebung&#62;&#62;</text>			</g>
			<g id="shape20-36" v:mID="20" v:groupContext="shape" v:layerMember="0" transform="translate(0,-75.3299)">
				<title>Tabelle.20</title>
				<desc>Bürgerbüro Backend</desc>
				<v:userDefs>
					<v:ud v:nameU="Label" v:prompt="" v:val="VT0(1):26"/>
					<v:ud v:nameU="Label" v:prompt="" v:val="VT0(17):26"/>
				</v:userDefs>
				<v:textBlock v:margins="rect(4,4,4,4)" v:tabSpace="42.5197"/>
				<v:textRect cx="101.316" cy="496.186" width="141.85" height="22.4037"/>
				<g id="shadow20-37" v:groupContext="shadow" v:shadowOffsetX="2.12399" v:shadowOffsetY="-2.12399" v:shadowType="1"
						transform="matrix(1,0,0,1,2.12399,2.12399)" class="st1"/>
				<text x="50.27" y="499.79" class="st5" v:langID="1031"><v:paragraph v:horizAlign="1"/><v:tabList/>Bürgerbüro Backend</text>			</g>
		</g>
		<g id="group21-39" transform="translate(348.531,-362.401)" v:mID="21" v:groupContext="group" v:layerMember="0">
			<v:userDefs>
				<v:ud v:nameU="UMLShapeType" v:val="VT0(26):26"/>
				<v:ud v:nameU="UMLObjectGUID" v:val="VT4()"/>
				<v:ud v:nameU="UMLError" v:val="VT0(0):26"/>
				<v:ud v:nameU="UMLVersion" v:val="VT4(2.X)"/>
				<v:ud v:nameU="visDescription" v:val="VT4(Represents a run-time computational or physical resource.)"/>
				<v:ud v:nameU="visVersion" v:val="VT0(17):26"/>
				<v:ud v:nameU="Stereotype" v:prompt="" v:val="VT0(1):5"/>
				<v:ud v:nameU="Label" v:prompt="" v:val="VT0(1):26"/>
				<v:ud v:nameU="MinWidth" v:prompt="" v:val="VT0(2.4015748031496):24"/>
				<v:ud v:nameU="MinHeight" v:prompt="" v:val="VT0(0.70866141732283):24"/>
				<v:ud v:nameU="msvStructureType" v:prompt="" v:val="VT4(Container)"/>
				<v:ud v:nameU="msvShapeCategories" v:prompt="" v:val="VT4(ContainerStyleDefaults)"/>
				<v:ud v:nameU="msvSDContainerMargin" v:prompt="" v:val="VT0(0.11811023622047):24"/>
				<v:ud v:nameU="msvSDContainerResize" v:prompt="" v:val="VT0(1):26"/>
				<v:ud v:nameU="msvSDContainerLocked" v:prompt="" v:val="VT0(0):5"/>
				<v:ud v:nameU="msvSDContainerNoHighlight" v:prompt="" v:val="VT0(0):5"/>
				<v:ud v:nameU="msvSDContainerNoRibbon" v:prompt="" v:val="VT0(0):5"/>
				<v:ud v:nameU="msvSDContainerStyle" v:prompt="" v:val="VT0(2):26"/>
				<v:ud v:nameU="msvSDContainerStyleCount" v:prompt="" v:val="VT0(14):26"/>
				<v:ud v:nameU="msvSDContainerRequiredCategories" v:prompt="" v:val="VT0(0):26"/>
				<v:ud v:nameU="msvSDContainerExcludedCategories" v:prompt="" v:val="VT4(DoNotContain)"/>
				<v:ud v:nameU="msvSDHeadingStyle" v:prompt="" v:val="VT0(1):26"/>
				<v:ud v:nameU="msvSDHeadingStyleCount" v:prompt="" v:val="VT0(4):26"/>
				<v:ud v:nameU="HeadingSide" v:prompt="" v:val="VT0(0):26"/>
				<v:ud v:nameU="HeadingSpan" v:prompt="" v:val="VT0(1):26"/>
				<v:ud v:nameU="HeadingAlign" v:prompt="" v:val="VT0(2):26"/>
				<v:ud v:nameU="RTL" v:prompt="" v:val="VT0(0):5"/>
				<v:ud v:nameU="StereotypeOffset" v:prompt="" v:val="VT0(0.049299212598425):24"/>
				<v:ud v:nameU="Label" v:prompt="" v:val="VT0(18):26"/>
			</v:userDefs>
			<title>Knoten.21</title>
			<g id="shape22-40" v:mID="22" v:groupContext="shape" v:layerMember="0" transform="translate(202.632,0)">
				<title>Tabelle.22</title>
				<g id="shadow22-41" v:groupContext="shadow" v:shadowOffsetX="2.12399" v:shadowOffsetY="-2.12399" v:shadowType="1"
						transform="matrix(1,0,0,1,2.12399,2.12399)" class="st1">
					<path d="M0 507.39 L9 498.39 L9 380.65 L0 389.65 L0 507.39 Z" class="st2"/>
				</g>
				<path d="M0 507.39 L9 498.39 L9 380.65 L0 389.65 L0 507.39 Z" class="st3"/>
			</g>
			<g id="shape23-44" v:mID="23" v:groupContext="shape" v:layerMember="0" transform="translate(0,-117.737)">
				<title>Tabelle.23</title>
				<g id="shadow23-45" v:groupContext="shadow" v:shadowOffsetX="2.12399" v:shadowOffsetY="-2.12399" v:shadowType="1"
						transform="matrix(1,0,0,1,2.12399,2.12399)" class="st1">
					<path d="M0 507.39 L202.63 507.39 L211.63 498.39 L9 498.39 L0 507.39 Z" class="st2"/>
				</g>
				<path d="M0 507.39 L202.63 507.39 L211.63 498.39 L9 498.39 L0 507.39 Z" class="st3"/>
			</g>
			<g id="shape24-48" v:mID="24" v:groupContext="shape" v:layerMember="0">
				<title>Name</title>
				<v:textBlock v:margins="rect(4,4,4,4)" v:tabSpace="42.5197"/>
				<g id="shadow24-49" v:groupContext="shadow" v:shadowOffsetX="2.12399" v:shadowOffsetY="-2.12399" v:shadowType="1"
						transform="matrix(1,0,0,1,2.12399,2.12399)" class="st1">
					<rect x="0" y="389.651" width="202.632" height="117.737" class="st2"/>
				</g>
				<rect x="0" y="389.651" width="202.632" height="117.737" class="st3"/>
			</g>
			<g id="shape25-52" v:mID="25" v:groupContext="shape" v:layerMember="0" transform="translate(0,-94.184)">
				<title>Class.11</title>
				<desc>&#60;&#60;Gerät/Umgebung&#62;&#62;</desc>
				<v:textBlock v:margins="rect(4,4,4,4)" v:tabSpace="42.5197"/>
				<v:textRect cx="101.316" cy="497.386" width="131.72" height="20.0036"/>
				<g id="shadow25-53" v:groupContext="shadow" v:shadowOffsetX="2.12399" v:shadowOffsetY="-2.12399" v:shadowType="1"
						transform="matrix(1,0,0,1,2.12399,2.12399)" class="st1"/>
				<text x="54.89" y="500.39" class="st4" v:langID="1031"><v:paragraph v:horizAlign="1"/><v:tabList/>&#60;&#60;Gerät/Umgebung&#62;&#62;</text>			</g>
			<g id="shape26-55" v:mID="26" v:groupContext="shape" v:layerMember="0" transform="translate(0,-75.3299)">
				<title>Tabelle.26</title>
				<desc>Microservice Backend</desc>
				<v:userDefs>
					<v:ud v:nameU="Label" v:prompt="" v:val="VT0(1):26"/>
					<v:ud v:nameU="Label" v:prompt="" v:val="VT0(18):26"/>
				</v:userDefs>
				<v:textBlock v:margins="rect(4,4,4,4)" v:tabSpace="42.5197"/>
				<v:textRect cx="101.316" cy="496.186" width="141.85" height="22.4037"/>
				<g id="shadow26-56" v:groupContext="shadow" v:shadowOffsetX="2.12399" v:shadowOffsetY="-2.12399" v:shadowType="1"
						transform="matrix(1,0,0,1,2.12399,2.12399)" class="st1"/>
				<text x="46.81" y="499.79" class="st5" v:langID="1031"><v:paragraph v:horizAlign="1"/><v:tabList/>Microservice Backend</text>			</g>
		</g>
		<g id="group27-58" transform="translate(348.531,-127.784)" v:mID="27" v:groupContext="group" v:layerMember="0">
			<v:userDefs>
				<v:ud v:nameU="UMLShapeType" v:val="VT0(26):26"/>
				<v:ud v:nameU="UMLObjectGUID" v:val="VT4()"/>
				<v:ud v:nameU="UMLError" v:val="VT0(0):26"/>
				<v:ud v:nameU="UMLVersion" v:val="VT4(2.X)"/>
				<v:ud v:nameU="visDescription" v:val="VT4(Represents a run-time computational or physical resource.)"/>
				<v:ud v:nameU="visVersion" v:val="VT0(17):26"/>
				<v:ud v:nameU="Stereotype" v:prompt="" v:val="VT0(1):5"/>
				<v:ud v:nameU="Label" v:prompt="" v:val="VT0(1):26"/>
				<v:ud v:nameU="MinWidth" v:prompt="" v:val="VT0(2.4015748031496):24"/>
				<v:ud v:nameU="MinHeight" v:prompt="" v:val="VT0(0.70866141732283):24"/>
				<v:ud v:nameU="msvStructureType" v:prompt="" v:val="VT4(Container)"/>
				<v:ud v:nameU="msvShapeCategories" v:prompt="" v:val="VT4(ContainerStyleDefaults)"/>
				<v:ud v:nameU="msvSDContainerMargin" v:prompt="" v:val="VT0(0.11811023622047):24"/>
				<v:ud v:nameU="msvSDContainerResize" v:prompt="" v:val="VT0(1):26"/>
				<v:ud v:nameU="msvSDContainerLocked" v:prompt="" v:val="VT0(0):5"/>
				<v:ud v:nameU="msvSDContainerNoHighlight" v:prompt="" v:val="VT0(0):5"/>
				<v:ud v:nameU="msvSDContainerNoRibbon" v:prompt="" v:val="VT0(0):5"/>
				<v:ud v:nameU="msvSDContainerStyle" v:prompt="" v:val="VT0(2):26"/>
				<v:ud v:nameU="msvSDContainerStyleCount" v:prompt="" v:val="VT0(14):26"/>
				<v:ud v:nameU="msvSDContainerRequiredCategories" v:prompt="" v:val="VT0(0):26"/>
				<v:ud v:nameU="msvSDContainerExcludedCategories" v:prompt="" v:val="VT4(DoNotContain)"/>
				<v:ud v:nameU="msvSDHeadingStyle" v:prompt="" v:val="VT0(1):26"/>
				<v:ud v:nameU="msvSDHeadingStyleCount" v:prompt="" v:val="VT0(4):26"/>
				<v:ud v:nameU="HeadingSide" v:prompt="" v:val="VT0(0):26"/>
				<v:ud v:nameU="HeadingSpan" v:prompt="" v:val="VT0(1):26"/>
				<v:ud v:nameU="HeadingAlign" v:prompt="" v:val="VT0(2):26"/>
				<v:ud v:nameU="RTL" v:prompt="" v:val="VT0(0):5"/>
				<v:ud v:nameU="StereotypeOffset" v:prompt="" v:val="VT0(0.049299212598425):24"/>
				<v:ud v:nameU="Label" v:prompt="" v:val="VT0(19):26"/>
			</v:userDefs>
			<title>Knoten.27</title>
			<g id="shape28-59" v:mID="28" v:groupContext="shape" v:layerMember="0" transform="translate(202.632,0)">
				<title>Tabelle.28</title>
				<g id="shadow28-60" v:groupContext="shadow" v:shadowOffsetX="2.12399" v:shadowOffsetY="-2.12399" v:shadowType="1"
						transform="matrix(1,0,0,1,2.12399,2.12399)" class="st1">
					<path d="M0 507.39 L9 498.39 L9 380.65 L0 389.65 L0 507.39 Z" class="st2"/>
				</g>
				<path d="M0 507.39 L9 498.39 L9 380.65 L0 389.65 L0 507.39 Z" class="st3"/>
			</g>
			<g id="shape29-63" v:mID="29" v:groupContext="shape" v:layerMember="0" transform="translate(0,-117.737)">
				<title>Tabelle.29</title>
				<g id="shadow29-64" v:groupContext="shadow" v:shadowOffsetX="2.12399" v:shadowOffsetY="-2.12399" v:shadowType="1"
						transform="matrix(1,0,0,1,2.12399,2.12399)" class="st1">
					<path d="M0 507.39 L202.63 507.39 L211.63 498.39 L9 498.39 L0 507.39 Z" class="st2"/>
				</g>
				<path d="M0 507.39 L202.63 507.39 L211.63 498.39 L9 498.39 L0 507.39 Z" class="st3"/>
			</g>
			<g id="shape30-67" v:mID="30" v:groupContext="shape" v:layerMember="0">
				<title>Name</title>
				<v:textBlock v:margins="rect(4,4,4,4)" v:tabSpace="42.5197"/>
				<g id="shadow30-68" v:groupContext="shadow" v:shadowOffsetX="2.12399" v:shadowOffsetY="-2.12399" v:shadowType="1"
						transform="matrix(1,0,0,1,2.12399,2.12399)" class="st1">
					<rect x="0" y="389.651" width="202.632" height="117.737" class="st2"/>
				</g>
				<rect x="0" y="389.651" width="202.632" height="117.737" class="st3"/>
			</g>
			<g id="shape31-71" v:mID="31" v:groupContext="shape" v:layerMember="0" transform="translate(0,-94.184)">
				<title>Class.11</title>
				<desc>&#60;&#60;Gerät/Umgebung&#62;&#62;</desc>
				<v:textBlock v:margins="rect(4,4,4,4)" v:tabSpace="42.5197"/>
				<v:textRect cx="101.316" cy="497.386" width="131.72" height="20.0036"/>
				<g id="shadow31-72" v:groupContext="shadow" v:shadowOffsetX="2.12399" v:shadowOffsetY="-2.12399" v:shadowType="1"
						transform="matrix(1,0,0,1,2.12399,2.12399)" class="st1"/>
				<text x="54.89" y="500.39" class="st4" v:langID="1031"><v:paragraph v:horizAlign="1"/><v:tabList/>&#60;&#60;Gerät/Umgebung&#62;&#62;</text>			</g>
			<g id="shape32-74" v:mID="32" v:groupContext="shape" v:layerMember="0" transform="translate(0,-75.3299)">
				<title>Tabelle.32</title>
				<desc>Webanwendung</desc>
				<v:userDefs>
					<v:ud v:nameU="Label" v:prompt="" v:val="VT0(1):26"/>
					<v:ud v:nameU="Label" v:prompt="" v:val="VT0(19):26"/>
				</v:userDefs>
				<v:textBlock v:margins="rect(4,4,4,4)" v:tabSpace="42.5197"/>
				<v:textRect cx="101.316" cy="496.186" width="141.85" height="22.4037"/>
				<g id="shadow32-75" v:groupContext="shadow" v:shadowOffsetX="2.12399" v:shadowOffsetY="-2.12399" v:shadowType="1"
						transform="matrix(1,0,0,1,2.12399,2.12399)" class="st1"/>
				<text x="60.24" y="499.79" class="st5" v:langID="1031"><v:paragraph v:horizAlign="1"/><v:tabList/>Webanwendung</text>			</g>
		</g>
		<g id="shape33-77" v:mID="33" v:groupContext="shape" transform="translate(437.778,-18.75)">
			<title>Benutzer</title>
			<v:userDefs>
				<v:ud v:nameU="msvShapeCategories" v:prompt="" v:val="VT4(Icon)"/>
				<v:ud v:nameU="visVersion" v:prompt="" v:val="VT0(15):26"/>
			</v:userDefs>
			<path d="M29.06 485.11 A4.24427 4.31218 -180 0 0 33.3 480.8 A4.24427 4.31218 -180 0 0 29.06 476.49 A4.24586 4.31379 -180
						 0 0 24.82 480.8 A4.24666 4.3146 -180 0 0 29.06 485.11 ZM29.06 474.34 A6.36071 6.46248 0 0 1 35.42 480.8
						 A6.36071 6.46248 0 0 1 29.06 487.26 A6.36045 6.46222 0 0 1 22.7 480.8 A6.36045 6.46222 0 0 1 29.06 474.34
						 ZM10.62 504.9 A7.41235 7.53095 -180 0 0 19.11 500.59 A9.32486 9.47406 -180 0 0 15.03 492.23 A31193.2 31692.3
						 -180 0 0 10.62 501.04 A15846.4 16099.9 0 0 1 6.22 492.23 A9.32589 9.47511 -180 0 0 2.14 500.59 A7.41152
						 7.5301 -180 0 0 10.62 504.9 ZM14.81 489.58 A11.1758 11.3546 0 0 1 21.23 500.59 A8.46954 8.60506 0 0 1 10.62
						 507.06 A8.46885 8.60435 0 0 1 0.02 500.59 A11.1805 11.3594 0 0 1 6.43 489.58 A7.613 7.73481 -180 0 0 7.59
						 490.23 L10.62 496.29 L13.66 490.23 A7.49665 7.61659 -180 0 0 14.81 489.58 ZM33.25 487.02 A11.1758 11.3546
						 0 0 1 39.66 498.03 A8.46954 8.60506 0 0 1 29.06 504.5 A16.883 17.1531 0 0 1 21.97 503.19 A6.43597 6.53894
						 -180 0 0 22.44 501.01 A14.6135 14.8474 -180 0 0 29.06 502.34 A7.41235 7.53095 -180 0 0 37.54 498.03 A9.32265
						 9.47181 -180 0 0 33.47 489.67 A19949.1 20268.3 -180 0 0 29.06 498.48 A22202.9 22558.1 0 0 1 24.65 489.67
						 A8.45059 8.5858 -180 0 0 21.16 494.29 A12.002 12.194 -180 0 0 19.8 491.98 A9.97536 10.135 0 0 1 24.87 487.02
						 A7.613 7.73481 -180 0 0 26.03 487.66 L29.06 493.72 L32.09 487.66 A7.49665 7.61659 -180 0 0 33.25 487.02
						 ZM10.62 487.67 A4.24347 4.31137 -180 0 0 14.87 483.36 A4.24427 4.31218 -180 0 0 10.62 479.05 A4.24586 4.31379
						 -180 0 0 6.38 483.36 A4.24666 4.3146 -180 0 0 10.62 487.67 ZM10.62 476.9 A6.36071 6.46248 0 0 1 16.98 483.36
						 A6.36071 6.46248 0 0 1 10.62 489.82 A6.36045 6.46222 0 0 1 4.26 483.36 A6.36045 6.46222 0 0 1 10.62 476.9
						 Z" class="st6"/>
		</g>
		<g id="shape38-79" v:mID="38" v:groupContext="shape" v:layerMember="1" transform="translate(461.472,-58.435)">
			<title>Dynamischer Verbinder</title>
			<path d="M-6.69 507.39 L-7.49 507.39 L-7.49 445.82" class="st7"/>
		</g>
		<g id="shape39-85" v:mID="39" v:groupContext="shape" v:layerMember="1" transform="translate(444.973,-245.522)">
			<title>Dynamischer Verbinder.39</title>
			<path d="M6.98 507.39 L7.18 402.49" class="st7"/>
		</g>
		<g id="shape40-90" v:mID="40" v:groupContext="shape" v:layerMember="1" transform="translate(348.531,-435.043)">
			<title>Dynamischer Verbinder.40</title>
			<path d="M0 500.3 L-107.81 500.3" class="st7"/>
		</g>
		<g id="shape41-95" v:mID="41" v:groupContext="shape" v:layerMember="1" transform="translate(182.244,-362.401)">
			<title>Dynamischer Verbinder.41</title>
			<path d="M0 507.39 L-45.91 608.85" class="st7"/>
		</g>
		<g id="shape42-100" v:mID="42" v:groupContext="shape" v:layerMember="1" transform="translate(348.531,-209.725)">
			<title>Dynamischer Verbinder.42</title>
			<path d="M0 514.47 L-111.61 514.47" class="st7"/>
		</g>
		<g id="shape43-105" v:mID="43" v:groupContext="shape" v:layerMember="1" transform="translate(229.882,-167.569)">
			<title>Dynamischer Verbinder.43</title>
			<path d="M0 500.3 L111.61 500.3" class="st7"/>
		</g>
		<g id="shape44-110" v:mID="44" v:groupContext="shape" transform="translate(459.321,-78.8445)">
			<title>Kreis</title>
			<desc>1</desc>
			<v:userDefs>
				<v:ud v:nameU="visVersion" v:val="VT0(15):26"/>
			</v:userDefs>
			<v:textBlock v:margins="rect(4,4,4,4)" v:tabSpace="42.5197"/>
			<v:textRect cx="12.4724" cy="494.916" width="21.83" height="18.7087"/>
			<path d="M0 494.92 A12.4724 12.4724 0 0 1 24.94 494.92 A12.4724 12.4724 0 1 1 0 494.92 Z" class="st9"/>
			<text x="7.91" y="500.32" class="st10" v:langID="1031"><v:paragraph v:horizAlign="1"/><v:tabList/>1</text>		</g>
		<g id="shape45-113" v:mID="45" v:groupContext="shape" transform="translate(279.037,-210.372)">
			<title>Kreis.45</title>
			<desc>2</desc>
			<v:userDefs>
				<v:ud v:nameU="visVersion" v:val="VT0(15):26"/>
			</v:userDefs>
			<v:textBlock v:margins="rect(4,4,4,4)" v:tabSpace="42.5197"/>
			<v:textRect cx="12.4724" cy="494.916" width="21.83" height="18.7087"/>
			<path d="M0 494.92 A12.4724 12.4724 0 0 1 24.94 494.92 A12.4724 12.4724 0 1 1 0 494.92 Z" class="st9"/>
			<text x="7.91" y="500.32" class="st10" v:langID="1031"><v:paragraph v:horizAlign="1"/><v:tabList/>2</text>		</g>
		<g id="shape46-116" v:mID="46" v:groupContext="shape" transform="translate(279.037,-143.474)">
			<title>Kreis.46</title>
			<desc>3</desc>
			<v:userDefs>
				<v:ud v:nameU="visVersion" v:val="VT0(15):26"/>
			</v:userDefs>
			<v:textBlock v:margins="rect(4,4,4,4)" v:tabSpace="42.5197"/>
			<v:textRect cx="12.4724" cy="494.916" width="21.83" height="18.7087"/>
			<path d="M0 494.92 A12.4724 12.4724 0 0 1 24.94 494.92 A12.4724 12.4724 0 1 1 0 494.92 Z" class="st9"/>
			<text x="7.91" y="500.32" class="st10" v:langID="1031"><v:paragraph v:horizAlign="1"/><v:tabList/>3</text>		</g>
		<g id="shape47-119" v:mID="47" v:groupContext="shape" transform="translate(458.187,-290.876)">
			<title>Kreis.47</title>
			<desc>4</desc>
			<v:userDefs>
				<v:ud v:nameU="visVersion" v:val="VT0(15):26"/>
			</v:userDefs>
			<v:textBlock v:margins="rect(4,4,4,4)" v:tabSpace="42.5197"/>
			<v:textRect cx="12.4724" cy="494.916" width="21.83" height="18.7087"/>
			<path d="M0 494.92 A12.4724 12.4724 0 0 1 24.94 494.92 A12.4724 12.4724 0 1 1 0 494.92 Z" class="st9"/>
			<text x="7.91" y="500.32" class="st10" v:langID="1031"><v:paragraph v:horizAlign="1"/><v:tabList/>4</text>		</g>
		<g id="shape48-122" v:mID="48" v:groupContext="shape" transform="translate(279.037,-455.193)">
			<title>Kreis.48</title>
			<desc>5</desc>
			<v:userDefs>
				<v:ud v:nameU="visVersion" v:val="VT0(15):26"/>
			</v:userDefs>
			<v:textBlock v:margins="rect(4,4,4,4)" v:tabSpace="42.5197"/>
			<v:textRect cx="12.4724" cy="494.916" width="21.83" height="18.7087"/>
			<path d="M0 494.92 A12.4724 12.4724 0 0 1 24.94 494.92 A12.4724 12.4724 0 1 1 0 494.92 Z" class="st9"/>
			<text x="7.91" y="500.32" class="st10" v:langID="1031"><v:paragraph v:horizAlign="1"/><v:tabList/>5</text>		</g>
		<g id="shape49-125" v:mID="49" v:groupContext="shape" transform="translate(146.376,-301.081)">
			<title>Kreis.49</title>
			<desc>6</desc>
			<v:userDefs>
				<v:ud v:nameU="visVersion" v:val="VT0(15):26"/>
			</v:userDefs>
			<v:textBlock v:margins="rect(4,4,4,4)" v:tabSpace="42.5197"/>
			<v:textRect cx="12.4724" cy="494.916" width="21.83" height="18.7087"/>
			<path d="M0 494.92 A12.4724 12.4724 0 0 1 24.94 494.92 A12.4724 12.4724 0 1 1 0 494.92 Z" class="st9"/>
			<text x="7.91" y="500.32" class="st10" v:langID="1031"><v:paragraph v:horizAlign="1"/><v:tabList/>6</text>		</g>
		<g id="shape50-128" v:mID="50" v:groupContext="shape" v:layerMember="1" transform="translate(96.2028,-254.522)">
			<title>Dynamischer Verbinder.50</title>
			<path d="M7.09 507.39 L7.09 406.55" class="st7"/>
		</g>
		<g id="shape51-133" v:mID="51" v:groupContext="shape" transform="translate(72.6752,-301.081)">
			<title>Kreis.51</title>
			<desc>7</desc>
			<v:userDefs>
				<v:ud v:nameU="visVersion" v:val="VT0(15):26"/>
			</v:userDefs>
			<v:textBlock v:margins="rect(4,4,4,4)" v:tabSpace="42.5197"/>
			<v:textRect cx="12.4724" cy="494.916" width="21.83" height="18.7087"/>
			<path d="M0 494.92 A12.4724 12.4724 0 0 1 24.94 494.92 A12.4724 12.4724 0 1 1 0 494.92 Z" class="st9"/>
			<text x="7.91" y="500.32" class="st10" v:langID="1031"><v:paragraph v:horizAlign="1"/><v:tabList/>7</text>		</g>
		<g id="shape52-136" v:mID="52" v:groupContext="shape" v:layerMember="1" transform="translate(229.882,-404.262)">
			<title>Dynamischer Verbinder.52</title>
			<path d="M0 500.3 L111.31 500.3" class="st7"/>
		</g>
		<g id="shape53-141" v:mID="53" v:groupContext="shape" transform="translate(279.037,-379.317)">
			<title>Kreis.53</title>
			<desc>7</desc>
			<v:userDefs>
				<v:ud v:nameU="visVersion" v:val="VT0(15):26"/>
			</v:userDefs>
			<v:textBlock v:margins="rect(4,4,4,4)" v:tabSpace="42.5197"/>
			<v:textRect cx="12.4724" cy="494.916" width="21.83" height="18.7087"/>
			<path d="M0 494.92 A12.4724 12.4724 0 0 1 24.94 494.92 A12.4724 12.4724 0 1 1 0 494.92 Z" class="st9"/>
			<text x="7.91" y="500.32" class="st10" v:langID="1031"><v:paragraph v:horizAlign="1"/><v:tabList/>7</text>		</g>
		<g id="group54-144" transform="translate(369.06,-143.474)" v:mID="54" v:groupContext="group" v:layerMember="0">
			<v:userDefs>
				<v:ud v:nameU="Stereotype" v:prompt="" v:val="VT0(1):5"/>
				<v:ud v:nameU="Label" v:prompt="" v:val="VT0(1):26"/>
				<v:ud v:nameU="MinWidth" v:prompt="" v:val="VT0(2.244094488189):24"/>
				<v:ud v:nameU="MinHeight" v:prompt="" v:val="VT0(0.6496062992126):24"/>
				<v:ud v:nameU="visVersion" v:prompt="" v:val="VT0(17):26"/>
				<v:ud v:nameU="msvStructureType" v:prompt="" v:val="VT4(Container)"/>
				<v:ud v:nameU="msvShapeCategories" v:prompt="" v:val="VT4(ContainerStyleDefaults)"/>
				<v:ud v:nameU="msvSDContainerMargin" v:prompt="" v:val="VT0(0.11811023622047):24"/>
				<v:ud v:nameU="msvSDContainerResize" v:prompt="" v:val="VT0(1):26"/>
				<v:ud v:nameU="msvSDContainerLocked" v:prompt="" v:val="VT0(0):5"/>
				<v:ud v:nameU="msvSDContainerNoHighlight" v:prompt="" v:val="VT0(0):5"/>
				<v:ud v:nameU="msvSDContainerNoRibbon" v:prompt="" v:val="VT0(0):5"/>
				<v:ud v:nameU="msvSDContainerStyle" v:prompt="" v:val="VT0(2):26"/>
				<v:ud v:nameU="msvSDContainerStyleCount" v:prompt="" v:val="VT0(14):26"/>
				<v:ud v:nameU="msvSDContainerRequiredCategories" v:prompt="" v:val="VT0(0):26"/>
				<v:ud v:nameU="msvSDContainerExcludedCategories" v:prompt="" v:val="VT4(DoNotContain)"/>
				<v:ud v:nameU="msvSDHeadingStyle" v:prompt="" v:val="VT0(1):26"/>
				<v:ud v:nameU="msvSDHeadingStyleCount" v:prompt="" v:val="VT0(4):26"/>
				<v:ud v:nameU="HeadingSide" v:prompt="" v:val="VT0(0):26"/>
				<v:ud v:nameU="HeadingSpan" v:prompt="" v:val="VT0(1):26"/>
				<v:ud v:nameU="HeadingAlign" v:prompt="" v:val="VT0(2):26"/>
				<v:ud v:nameU="RTL" v:prompt="" v:val="VT0(0):5"/>
				<v:ud v:nameU="StereotypeOffset" v:prompt="" v:val="VT0(0.06):24"/>
				<v:ud v:nameU="TextOffset" v:prompt="" v:val="VT0(0.021200787401575):24"/>
				<v:ud v:nameU="Label" v:prompt="" v:val="VT0(18):26"/>
			</v:userDefs>
			<title>Komponente.331</title>
			<g id="shape55-145" v:mID="55" v:groupContext="shape" v:layerMember="0">
				<title>Tabelle.55</title>
				<rect x="0" y="455.798" width="161.575" height="51.5906" class="st11"/>
			</g>
			<g id="group56-147" transform="translate(126.142,-18.9921)" v:mID="56" v:groupContext="group" v:layerMember="0">
				<title>Tabelle.56</title>
				<g id="shape57-148" v:mID="57" v:groupContext="shape" v:layerMember="0" transform="translate(6.67232,0)">
					<title>Tabelle.57</title>
					<rect x="0" y="481.876" width="18.8395" height="25.5118" class="st11"/>
				</g>
				<g id="shape58-150" v:mID="58" v:groupContext="shape" v:layerMember="0" transform="translate(-0.0981224,-16.3473)">
					<title>Tabelle.58</title>
					<rect x="0" y="503.562" width="12.7559" height="3.82677" class="st11"/>
				</g>
				<g id="shape59-152" v:mID="59" v:groupContext="shape" v:layerMember="0" transform="translate(-0.0981224,-6.76139)">
					<title>Tabelle.59</title>
					<rect x="0" y="503.562" width="12.7559" height="3.82677" class="st11"/>
				</g>
			</g>
			<g id="shape60-154" v:mID="60" v:groupContext="shape" v:layerMember="0" transform="translate(0,-24.8669)">
				<title>Class.11</title>
				<desc>&#60;&#60;Modul&#62;&#62;</desc>
				<v:textBlock v:margins="rect(4,4,4,4)" v:tabSpace="42.5197"/>
				<v:textRect cx="80.7874" cy="496.186" width="105.03" height="22.4037"/>
				<text x="52.86" y="499.79" class="st12" v:langID="1031"><v:paragraph v:horizAlign="1"/><v:tabList/>&#60;&#60;Modul&#62;&#62;</text>			</g>
			<g id="shape61-156" v:mID="61" v:groupContext="shape" v:layerMember="0" transform="translate(0,-8.30961)">
				<title>Tabelle.61</title>
				<desc>Firebase Client SDK</desc>
				<v:userDefs>
					<v:ud v:nameU="Label" v:prompt="" v:val="VT0(1):26"/>
					<v:ud v:nameU="Label" v:prompt="" v:val="VT0(18):26"/>
				</v:userDefs>
				<v:textBlock v:margins="rect(4,4,4,4)" v:tabSpace="42.5197"/>
				<v:textRect cx="80.7874" cy="496.186" width="113.11" height="22.4037"/>
				<text x="33.84" y="499.79" class="st12" v:langID="1031"><v:paragraph v:horizAlign="1"/><v:tabList/>Firebase Client SDK</text>			</g>
		</g>
		<g id="group62-158" transform="translate(38.7788,-379.317)" v:mID="62" v:groupContext="group" v:layerMember="0">
			<v:userDefs>
				<v:ud v:nameU="Stereotype" v:prompt="" v:val="VT0(1):5"/>
				<v:ud v:nameU="Label" v:prompt="" v:val="VT0(1):26"/>
				<v:ud v:nameU="MinWidth" v:prompt="" v:val="VT0(2.244094488189):24"/>
				<v:ud v:nameU="MinHeight" v:prompt="" v:val="VT0(0.6496062992126):24"/>
				<v:ud v:nameU="visVersion" v:prompt="" v:val="VT0(17):26"/>
				<v:ud v:nameU="msvStructureType" v:prompt="" v:val="VT4(Container)"/>
				<v:ud v:nameU="msvShapeCategories" v:prompt="" v:val="VT4(ContainerStyleDefaults)"/>
				<v:ud v:nameU="msvSDContainerMargin" v:prompt="" v:val="VT0(0.11811023622047):24"/>
				<v:ud v:nameU="msvSDContainerResize" v:prompt="" v:val="VT0(1):26"/>
				<v:ud v:nameU="msvSDContainerLocked" v:prompt="" v:val="VT0(0):5"/>
				<v:ud v:nameU="msvSDContainerNoHighlight" v:prompt="" v:val="VT0(0):5"/>
				<v:ud v:nameU="msvSDContainerNoRibbon" v:prompt="" v:val="VT0(0):5"/>
				<v:ud v:nameU="msvSDContainerStyle" v:prompt="" v:val="VT0(2):26"/>
				<v:ud v:nameU="msvSDContainerStyleCount" v:prompt="" v:val="VT0(14):26"/>
				<v:ud v:nameU="msvSDContainerRequiredCategories" v:prompt="" v:val="VT0(0):26"/>
				<v:ud v:nameU="msvSDContainerExcludedCategories" v:prompt="" v:val="VT4(DoNotContain)"/>
				<v:ud v:nameU="msvSDHeadingStyle" v:prompt="" v:val="VT0(1):26"/>
				<v:ud v:nameU="msvSDHeadingStyleCount" v:prompt="" v:val="VT0(4):26"/>
				<v:ud v:nameU="HeadingSide" v:prompt="" v:val="VT0(0):26"/>
				<v:ud v:nameU="HeadingSpan" v:prompt="" v:val="VT0(1):26"/>
				<v:ud v:nameU="HeadingAlign" v:prompt="" v:val="VT0(2):26"/>
				<v:ud v:nameU="RTL" v:prompt="" v:val="VT0(0):5"/>
				<v:ud v:nameU="StereotypeOffset" v:prompt="" v:val="VT0(0.06):24"/>
				<v:ud v:nameU="TextOffset" v:prompt="" v:val="VT0(0.021200787401575):24"/>
				<v:ud v:nameU="Label" v:prompt="" v:val="VT0(19):26"/>
			</v:userDefs>
			<title>Komponente.62</title>
			<g id="shape63-159" v:mID="63" v:groupContext="shape" v:layerMember="0">
				<title>Tabelle.63</title>
				<rect x="0" y="455.798" width="161.575" height="51.5906" class="st11"/>
			</g>
			<g id="group64-161" transform="translate(126.142,-18.9921)" v:mID="64" v:groupContext="group" v:layerMember="0">
				<title>Tabelle.64</title>
				<g id="shape65-162" v:mID="65" v:groupContext="shape" v:layerMember="0" transform="translate(6.67232,0)">
					<title>Tabelle.65</title>
					<rect x="0" y="481.876" width="18.8395" height="25.5118" class="st11"/>
				</g>
				<g id="shape66-164" v:mID="66" v:groupContext="shape" v:layerMember="0" transform="translate(-0.0981224,-16.3473)">
					<title>Tabelle.66</title>
					<rect x="0" y="503.562" width="12.7559" height="3.82677" class="st11"/>
				</g>
				<g id="shape67-166" v:mID="67" v:groupContext="shape" v:layerMember="0" transform="translate(-0.0981224,-6.76139)">
					<title>Tabelle.67</title>
					<rect x="0" y="503.562" width="12.7559" height="3.82677" class="st11"/>
				</g>
			</g>
			<g id="shape68-168" v:mID="68" v:groupContext="shape" v:layerMember="0" transform="translate(0,-24.8669)">
				<title>Class.11</title>
				<desc>&#60;&#60;Modul&#62;&#62;</desc>
				<v:textBlock v:margins="rect(4,4,4,4)" v:tabSpace="42.5197"/>
				<v:textRect cx="80.7874" cy="496.186" width="105.03" height="22.4037"/>
				<text x="52.86" y="499.79" class="st12" v:langID="1031"><v:paragraph v:horizAlign="1"/><v:tabList/>&#60;&#60;Modul&#62;&#62;</text>			</g>
			<g id="shape69-170" v:mID="69" v:groupContext="shape" v:layerMember="0" transform="translate(0,-8.30961)">
				<title>Tabelle.69</title>
				<desc>Firebase Admin SDK</desc>
				<v:userDefs>
					<v:ud v:nameU="Label" v:prompt="" v:val="VT0(1):26"/>
					<v:ud v:nameU="Label" v:prompt="" v:val="VT0(19):26"/>
				</v:userDefs>
				<v:textBlock v:margins="rect(4,4,4,4)" v:tabSpace="42.5197"/>
				<v:textRect cx="80.7874" cy="496.186" width="113.11" height="22.4037"/>
				<text x="31.99" y="499.79" class="st12" v:langID="1031"><v:paragraph v:horizAlign="1"/><v:tabList/>Firebase Admin SDK</text>			</g>
		</g>
	</g>
</svg>
