<?xml version="1.0" encoding="UTF-8" standalone="no"?>
<!DOCTYPE svg PUBLIC "-//W3C//DTD SVG 1.1//EN" "http://www.w3.org/Graphics/SVG/1.1/DTD/svg11.dtd">
<!-- Generiert durch Microsoft Visio, SVG Export SmartCity_Authentifizierung_Ablauf.svg Page-1 -->
<svg xmlns="http://www.w3.org/2000/svg" xmlns:xlink="http://www.w3.org/1999/xlink" xmlns:ev="http://www.w3.org/2001/xml-events"
		xmlns:v="http://schemas.microsoft.com/visio/2003/SVGExtensions/" width="7.11569in" height="4.56562in"
		viewBox="0 0 512.329 328.725" xml:space="preserve" color-interpolation-filters="sRGB" class="st12">
	<v:documentProperties v:langID="1031" v:metric="true" v:viewMarkup="false">
		<v:userDefs>
			<v:ud v:nameU="msvNoAutoConnect" v:prompt="" v:val="VT0(1):26"/>
		</v:userDefs>
	</v:documentProperties>

	<style type="text/css">
	<![CDATA[
		.st1 {fill:#a5a5a5;stroke:#9b9b9b;stroke-linecap:round;stroke-linejoin:round;stroke-width:0.5}
		.st2 {fill:#5b9bd5;stroke:#ffffff;stroke-linecap:round;stroke-linejoin:round;stroke-width:0.5}
		.st3 {stroke:#5592c9;stroke-dasharray:3.5,2.5;stroke-linecap:round;stroke-linejoin:round;stroke-width:0.5}
		.st4 {fill:#ffffff;font-family:Calibri;font-size:1.00001em;font-weight:bold}
		.st5 {font-size:1em}
		.st6 {marker-end:url(#mrkr4-70);stroke:#6ca43d;stroke-linecap:round;stroke-linejoin:round;stroke-width:0.5}
		.st7 {fill:#6ca43d;fill-opacity:1;stroke:#6ca43d;stroke-opacity:1;stroke-width:0.13368983957219}
		.st8 {fill:#ffffff;stroke:none;stroke-linecap:butt;stroke-width:7.2}
		.st9 {fill:#53802e;font-family:Calibri;font-size:0.666664em}
		.st10 {marker-end:url(#mrkr3-85);stroke:#6ca43d;stroke-dasharray:3.5,2.5;stroke-linecap:round;stroke-linejoin:round;stroke-width:0.5}
		.st11 {fill:#ffffff;stroke:none;stroke-linecap:butt}
		.st12 {fill:none;fill-rule:evenodd;font-size:12px;overflow:visible;stroke-linecap:square;stroke-miterlimit:3}
	]]>
	</style>

	<defs id="Markers">
		<g id="lend4">
			<path d="M 2 1 L 0 0 L 2 -1 L 2 1 " style="stroke:none"/>
		</g>
		<marker id="mrkr4-70" class="st7" v:arrowType="4" v:arrowSize="3" v:setback="14.96" refX="-14.96" orient="auto"
				markerUnits="strokeWidth" overflow="visible">
			<use xlink:href="#lend4" transform="scale(-7.48,-7.48) "/>
		</marker>
		<g id="lend3">
			<path d="M 2 1 L 0 0 L 2 -1 " style="stroke-linecap:round;stroke-linejoin:round;fill:none"/>
		</g>
		<marker id="mrkr3-85" class="st7" v:arrowType="3" v:arrowSize="3" orient="auto" markerUnits="strokeWidth"
				overflow="visible">
			<use xlink:href="#lend3" transform="scale(-7.48,-7.48) "/>
		</marker>
	</defs>
	<g v:mID="0" v:index="1" v:groupContext="foregroundPage">
		<v:userDefs>
			<v:ud v:nameU="msvThemeOrder" v:val="VT0(0):26"/>
		</v:userDefs>
		<title>Zeichenblatt-1</title>
		<v:pageProperties v:drawingScale="0.0393701" v:pageScale="0.0393701" v:drawingUnits="24" v:shadowOffsetX="8.50394"
				v:shadowOffsetY="-8.50394"/>
		<v:layer v:name="Verbinder" v:index="0"/>
		<g id="shape35-1" v:mID="35" v:groupContext="shape" transform="translate(120,234.392) rotate(-90)">
			<title>Aktivierung.35</title>
			<v:userDefs>
				<v:ud v:nameU="visVersion" v:prompt="" v:val="VT0(15):26"/>
			</v:userDefs>
			<rect x="0" y="320.221" width="39.4016" height="8.50394" class="st1"/>
		</g>
		<g id="shape22-3" v:mID="22" v:groupContext="shape" transform="translate(-215.905,284.99) rotate(-90)">
			<title>Aktivierung</title>
			<v:userDefs>
				<v:ud v:nameU="visVersion" v:prompt="" v:val="VT0(15):26"/>
			</v:userDefs>
			<rect x="0" y="320.221" width="198" height="8.50394" class="st1"/>
		</g>
		<g id="shape31-5" v:mID="31" v:groupContext="shape" transform="translate(8.0319,248.99) rotate(-90)">
			<title>Aktivierung.31</title>
			<v:userDefs>
				<v:ud v:nameU="visVersion" v:prompt="" v:val="VT0(15):26"/>
			</v:userDefs>
			<rect x="0" y="320.221" width="62.1333" height="8.50394" class="st1"/>
		</g>
		<g id="shape32-7" v:mID="32" v:groupContext="shape" transform="translate(-103.937,183.368) rotate(-90)">
			<title>Aktivierung.32</title>
			<v:userDefs>
				<v:ud v:nameU="visVersion" v:prompt="" v:val="VT0(15):26"/>
			</v:userDefs>
			<rect x="0" y="320.221" width="24.3779" height="8.50394" class="st1"/>
		</g>
		<g id="shape25-9" v:mID="25" v:groupContext="shape" transform="translate(-103.937,143.683) rotate(-90)">
			<title>Aktivierung.25</title>
			<v:userDefs>
				<v:ud v:nameU="visVersion" v:prompt="" v:val="VT0(15):26"/>
			</v:userDefs>
			<rect x="0" y="320.221" width="25.5118" height="8.50394" class="st1"/>
		</g>
		<g id="group1-11" transform="translate(58.9613,-241.735)" v:mID="1" v:groupContext="group">
			<v:userDefs>
				<v:ud v:nameU="visVersion" v:prompt="" v:val="VT0(15):26"/>
				<v:ud v:nameU="ShowActor" v:prompt="" v:val="VT0(1):5"/>
				<v:ud v:nameU="ShowDestruction" v:prompt="" v:val="VT0(0):5"/>
			</v:userDefs>
			<title>Akteur-Lebenslinie</title>
			<desc>Webanwendung</desc>
			<g id="shape2-12" v:mID="2" v:groupContext="shape" transform="translate(24.0945,-2.83465)">
				<title>Tabelle.2</title>
				<rect x="0" y="303.213" width="51.0236" height="25.5118" class="st2"/>
			</g>
			<g id="shape3-14" v:mID="3" v:groupContext="shape" transform="translate(41.1024,-34.7244)">
				<title>Tabelle.3</title>
				<path d="M3.4 328.72 L3.4 311.72 L3.4 318.52 L0 318.52 L0 304.91 L1.7 303.21 L15.31 303.21 L17.01 304.91 L17.01 318.52
							 L13.61 318.52 L13.61 311.72 L13.61 328.72 L8.5 328.72 L8.5 315.12 L8.5 328.72 L3.4 328.72 ZM11.91 298.11
							 A3.40157 3.40157 -180 1 0 5.1 298.11 A3.40157 3.40157 -180 1 0 11.91 298.11 Z" class="st2"/>
			</g>
			<g id="shape4-16" v:mID="4" v:groupContext="shape" transform="translate(33.0709,220.9)">
				<title>Tabelle.4</title>
			</g>
			<g id="shape5-18" v:mID="5" v:groupContext="shape" transform="translate(378.331,328.725) rotate(90)">
				<title>Tabelle.5</title>
				<path d="M0 328.72 L201.26 328.72" class="st3"/>
			</g>
			<g id="shape1-21" v:mID="1" v:groupContext="groupContent">
				<v:textBlock v:margins="rect(4,4,4,4)" v:tabSpace="42.5197"/>
				<v:textRect cx="49.6063" cy="313.134" width="99.22" height="31.1811"/>
				<rect x="0" y="297.544" width="99.2126" height="31.1811" class="st2"/>
				<text x="8.53" y="316.73" class="st4" v:langID="1031"><v:paragraph v:horizAlign="1"/><v:tabList/>Webanwendung</text>			</g>
		</g>
		<g id="group6-24" transform="translate(170.93,-241.735)" v:mID="6" v:groupContext="group">
			<v:userDefs>
				<v:ud v:nameU="visVersion" v:prompt="" v:val="VT0(15):26"/>
				<v:ud v:nameU="ShowActor" v:prompt="" v:val="VT0(1):5"/>
				<v:ud v:nameU="ShowDestruction" v:prompt="" v:val="VT0(0):5"/>
			</v:userDefs>
			<title>Akteur-Lebenslinie.6</title>
			<desc>Firebase Server</desc>
			<g id="shape7-25" v:mID="7" v:groupContext="shape" transform="translate(24.0945,-2.83465)">
				<title>Tabelle.7</title>
				<rect x="0" y="303.213" width="51.0236" height="25.5118" class="st2"/>
			</g>
			<g id="shape8-27" v:mID="8" v:groupContext="shape" transform="translate(41.1024,-34.7244)">
				<title>Tabelle.8</title>
				<path d="M3.4 328.72 L3.4 311.72 L3.4 318.52 L0 318.52 L0 304.91 L1.7 303.21 L15.31 303.21 L17.01 304.91 L17.01 318.52
							 L13.61 318.52 L13.61 311.72 L13.61 328.72 L8.5 328.72 L8.5 315.12 L8.5 328.72 L3.4 328.72 ZM11.91 298.11
							 A3.40157 3.40157 -180 1 0 5.1 298.11 A3.40157 3.40157 -180 1 0 11.91 298.11 Z" class="st2"/>
			</g>
			<g id="shape9-29" v:mID="9" v:groupContext="shape" transform="translate(33.0709,220.9)">
				<title>Tabelle.9</title>
			</g>
			<g id="shape10-31" v:mID="10" v:groupContext="shape" transform="translate(378.331,328.725) rotate(90)">
				<title>Tabelle.10</title>
				<path d="M0 328.72 L201.26 328.72" class="st3"/>
			</g>
			<g id="shape6-34" v:mID="6" v:groupContext="groupContent">
				<v:textBlock v:margins="rect(4,4,4,4)" v:tabSpace="42.5197"/>
				<v:textRect cx="49.6063" cy="313.134" width="99.22" height="31.1811"/>
				<rect x="0" y="297.544" width="99.2126" height="31.1811" class="st2"/>
				<text x="11.29" y="316.73" class="st4" v:langID="1031"><v:paragraph v:horizAlign="1"/><v:tabList/>Firebase Server</text>			</g>
		</g>
		<g id="group11-37" transform="translate(282.898,-241.735)" v:mID="11" v:groupContext="group">
			<v:userDefs>
				<v:ud v:nameU="visVersion" v:prompt="" v:val="VT0(15):26"/>
				<v:ud v:nameU="ShowActor" v:prompt="" v:val="VT0(1):5"/>
				<v:ud v:nameU="ShowDestruction" v:prompt="" v:val="VT0(0):5"/>
			</v:userDefs>
			<title>Akteur-Lebenslinie.11</title>
			<desc>Microservice Backend</desc>
			<g id="shape12-38" v:mID="12" v:groupContext="shape" transform="translate(24.0945,-2.83465)">
				<title>Tabelle.12</title>
				<rect x="0" y="303.213" width="51.0236" height="25.5118" class="st2"/>
			</g>
			<g id="shape13-40" v:mID="13" v:groupContext="shape" transform="translate(41.1024,-34.7244)">
				<title>Tabelle.13</title>
				<path d="M3.4 328.72 L3.4 311.72 L3.4 318.52 L0 318.52 L0 304.91 L1.7 303.21 L15.31 303.21 L17.01 304.91 L17.01 318.52
							 L13.61 318.52 L13.61 311.72 L13.61 328.72 L8.5 328.72 L8.5 315.12 L8.5 328.72 L3.4 328.72 ZM11.91 298.11
							 A3.40157 3.40157 -180 1 0 5.1 298.11 A3.40157 3.40157 -180 1 0 11.91 298.11 Z" class="st2"/>
			</g>
			<g id="shape14-42" v:mID="14" v:groupContext="shape" transform="translate(33.0709,223.735)">
				<title>Tabelle.14</title>
			</g>
			<g id="shape15-44" v:mID="15" v:groupContext="shape" transform="translate(378.331,328.725) rotate(90)">
				<title>Tabelle.15</title>
				<path d="M0 328.72 L204.09 328.72" class="st3"/>
			</g>
			<g id="shape11-47" v:mID="11" v:groupContext="groupContent">
				<v:textBlock v:margins="rect(4,4,4,4)" v:tabSpace="42.5197"/>
				<v:textRect cx="49.6063" cy="313.134" width="99.22" height="31.1811"/>
				<rect x="0" y="297.544" width="99.2126" height="31.1811" class="st2"/>
				<text x="17.63" y="309.53" class="st4" v:langID="1031"><v:paragraph v:horizAlign="1"/><v:tabList/>Microservice<v:newlineChar/><tspan
							x="28.43" dy="1.2em" class="st5">Backend</tspan></text>			</g>
		</g>
		<g id="group16-51" transform="translate(394.867,-241.735)" v:mID="16" v:groupContext="group">
			<v:userDefs>
				<v:ud v:nameU="visVersion" v:prompt="" v:val="VT0(15):26"/>
				<v:ud v:nameU="ShowActor" v:prompt="" v:val="VT0(1):5"/>
				<v:ud v:nameU="ShowDestruction" v:prompt="" v:val="VT0(0):5"/>
			</v:userDefs>
			<title>Akteur-Lebenslinie.16</title>
			<desc>B端rgerb端ro Backend</desc>
			<g id="shape17-52" v:mID="17" v:groupContext="shape" transform="translate(24.0945,-2.83465)">
				<title>Tabelle.17</title>
				<rect x="0" y="303.213" width="51.0236" height="25.5118" class="st2"/>
			</g>
			<g id="shape18-54" v:mID="18" v:groupContext="shape" transform="translate(41.1024,-34.7244)">
				<title>Tabelle.18</title>
				<path d="M3.4 328.72 L3.4 311.72 L3.4 318.52 L0 318.52 L0 304.91 L1.7 303.21 L15.31 303.21 L17.01 304.91 L17.01 318.52
							 L13.61 318.52 L13.61 311.72 L13.61 328.72 L8.5 328.72 L8.5 315.12 L8.5 328.72 L3.4 328.72 ZM11.91 298.11
							 A3.40157 3.40157 -180 1 0 5.1 298.11 A3.40157 3.40157 -180 1 0 11.91 298.11 Z" class="st2"/>
			</g>
			<g id="shape19-56" v:mID="19" v:groupContext="shape" transform="translate(33.0709,223.735)">
				<title>Tabelle.19</title>
			</g>
			<g id="shape20-58" v:mID="20" v:groupContext="shape" transform="translate(378.331,328.725) rotate(90)">
				<title>Tabelle.20</title>
				<path d="M0 328.72 L204.09 328.72" class="st3"/>
			</g>
			<g id="shape16-61" v:mID="16" v:groupContext="groupContent">
				<v:textBlock v:margins="rect(4,4,4,4)" v:tabSpace="42.5197"/>
				<v:textRect cx="49.6063" cy="313.134" width="99.22" height="31.1811"/>
				<rect x="0" y="297.544" width="99.2126" height="31.1811" class="st2"/>
				<text x="21.09" y="309.53" class="st4" v:langID="1031"><v:paragraph v:horizAlign="1"/><v:tabList/>B端rgerb端ro <tspan
							x="28.43" dy="1.2em" class="st5">Backend</tspan></text>			</g>
		</g>
		<g id="shape21-65" v:mID="21" v:groupContext="shape" v:layerMember="0" transform="translate(26.3629,-206.301)">
			<title>Nachricht</title>
			<desc>User Login</desc>
			<v:userDefs>
				<v:ud v:nameU="IsReturn" v:prompt="" v:val="VT0(0):5"/>
				<v:ud v:nameU="IsAsync" v:prompt="" v:val="VT0(0):5"/>
				<v:ud v:nameU="IsSelfMessage" v:prompt="" v:val="VT0(0):5"/>
				<v:ud v:nameU="visVersion" v:prompt="" v:val="VT0(15):26"/>
			</v:userDefs>
			<v:textBlock v:margins="rect(4,4,4,4)" v:tabSpace="42.5197"/>
			<v:textRect cx="39.685" cy="321.638" width="44.04" height="17.6036"/>
			<path d="M0 321.64 L71.89 321.64" class="st6"/>
			<rect v:rectContext="textBkgnd" x="22.572" y="316.838" width="34.2263" height="9.59985" class="st8"/>
			<text x="22.57" y="324.04" class="st9" v:langID="1031"><v:paragraph v:horizAlign="1"/><v:tabList/>User Login</text>		</g>
		<g id="shape23-73" v:mID="23" v:groupContext="shape" v:layerMember="0" transform="translate(112.82,-198.648)">
			<title>Nachricht.23</title>
			<desc>Login (Credentials)</desc>
			<v:userDefs>
				<v:ud v:nameU="IsReturn" v:prompt="" v:val="VT0(0):5"/>
				<v:ud v:nameU="IsAsync" v:prompt="" v:val="VT0(0):5"/>
				<v:ud v:nameU="IsSelfMessage" v:prompt="" v:val="VT0(0):5"/>
				<v:ud v:nameU="visVersion" v:prompt="" v:val="VT0(15):26"/>
			</v:userDefs>
			<v:textBlock v:margins="rect(4,4,4,4)" v:tabSpace="42.5197"/>
			<v:textRect cx="51.9966" cy="319.654" width="70.6" height="17.6036"/>
			<path d="M0 321.64 L94.09 321.64" class="st6"/>
			<rect v:rectContext="textBkgnd" x="21.6065" y="314.854" width="60.7805" height="9.59985" class="st8"/>
			<text x="21.61" y="322.05" class="st9" v:langID="1031"><v:paragraph v:horizAlign="1"/><v:tabList/>Login (Credentials)</text>		</g>
		<g id="shape26-80" v:mID="26" v:groupContext="shape" v:layerMember="0" transform="translate(220.536,-180.648)">
			<title>Antwortnachricht</title>
			<desc>Return User object</desc>
			<v:userDefs>
				<v:ud v:nameU="IsReturn" v:prompt="" v:val="VT0(1):5"/>
				<v:ud v:nameU="IsAsync" v:prompt="" v:val="VT0(0):5"/>
				<v:ud v:nameU="IsSelfMessage" v:prompt="" v:val="VT0(0):5"/>
				<v:ud v:nameU="visVersion" v:prompt="" v:val="VT0(15):26"/>
			</v:userDefs>
			<v:textBlock v:margins="rect(4,4,4,4)" v:tabSpace="42.5197"/>
			<v:textRect cx="-52.5759" cy="320.929" width="71.04" height="17.6036"/>
			<path d="M0 321.64 L-107.72 321.64" class="st10"/>
			<rect v:rectContext="textBkgnd" x="-83.1888" y="316.13" width="61.226" height="9.59985" class="st8"/>
			<text x="-83.19" y="323.33" class="st9" v:langID="1031"><v:paragraph v:horizAlign="1"/><v:tabList/>Return User object</text>		</g>
		<g id="shape27-88" v:mID="27" v:groupContext="shape" v:layerMember="0" transform="translate(112.82,-176.821)">
			<title>Nachricht.27</title>
			<desc>Get User Token</desc>
			<v:userDefs>
				<v:ud v:nameU="IsReturn" v:prompt="" v:val="VT0(0):5"/>
				<v:ud v:nameU="IsAsync" v:prompt="" v:val="VT0(0):5"/>
				<v:ud v:nameU="IsSelfMessage" v:prompt="" v:val="VT0(0):5"/>
				<v:ud v:nameU="visVersion" v:prompt="" v:val="VT0(15):26"/>
			</v:userDefs>
			<v:textBlock v:margins="rect(4,4,4,4)" v:tabSpace="42.5197"/>
			<v:textRect cx="51.7323" cy="335.811" width="60.11" height="17.6036"/>
			<path d="M0 335.81 L95.98 335.81" class="st6"/>
			<rect v:rectContext="textBkgnd" x="26.5861" y="331.012" width="50.2927" height="9.59985" class="st8"/>
			<text x="26.59" y="338.21" class="st9" v:langID="1031"><v:paragraph v:horizAlign="1"/><v:tabList/>Get User Token</text>		</g>
		<g id="shape29-95" v:mID="29" v:groupContext="shape" v:layerMember="0" transform="translate(216.284,-144.648)">
			<title>Antwortnachricht.29</title>
			<desc>Return User Token</desc>
			<v:userDefs>
				<v:ud v:nameU="IsReturn" v:prompt="" v:val="VT0(1):5"/>
				<v:ud v:nameU="IsAsync" v:prompt="" v:val="VT0(0):5"/>
				<v:ud v:nameU="IsSelfMessage" v:prompt="" v:val="VT0(0):5"/>
				<v:ud v:nameU="visVersion" v:prompt="" v:val="VT0(15):26"/>
			</v:userDefs>
			<v:textBlock v:margins="rect(4,4,4,4)" v:tabSpace="42.5197"/>
			<v:textRect cx="-51.7323" cy="321.638" width="70.6" height="17.6036"/>
			<path d="M0 321.64 L-103.46 321.64" class="st10"/>
			<rect v:rectContext="textBkgnd" x="-82.1246" y="316.838" width="60.7849" height="9.59985" class="st8"/>
			<text x="-82.12" y="324.04" class="st9" v:langID="1031"><v:paragraph v:horizAlign="1"/><v:tabList/>Return User Token</text>		</g>
		<g id="shape30-102" v:mID="30" v:groupContext="shape" v:layerMember="0" transform="translate(112.82,-126.79)">
			<title>Nachricht.30</title>
			<desc>Send User Token to backend</desc>
			<v:userDefs>
				<v:ud v:nameU="IsReturn" v:prompt="" v:val="VT0(0):5"/>
				<v:ud v:nameU="IsAsync" v:prompt="" v:val="VT0(0):5"/>
				<v:ud v:nameU="IsSelfMessage" v:prompt="" v:val="VT0(0):5"/>
				<v:ud v:nameU="visVersion" v:prompt="" v:val="VT0(15):26"/>
			</v:userDefs>
			<v:textBlock v:margins="rect(4,4,4,4)" v:tabSpace="42.5197"/>
			<v:textRect cx="105.591" cy="321.638" width="102.42" height="17.6036"/>
			<path d="M0 321.78 L203.7 321.51" class="st6"/>
			<rect v:rectContext="textBkgnd" x="59.2882" y="316.838" width="92.6049" height="9.59985" class="st11"/>
			<text x="59.29" y="324.04" class="st9" v:langID="1031"><v:paragraph v:horizAlign="1"/><v:tabList/>Send User Token to backend</text>		</g>
		<g id="shape34-109" v:mID="34" v:groupContext="shape" v:layerMember="0" transform="translate(336.757,-130.36)">
			<title>Nachricht.34</title>
			<desc>GRPC Call: VerifyUser</desc>
			<v:userDefs>
				<v:ud v:nameU="IsReturn" v:prompt="" v:val="VT0(0):5"/>
				<v:ud v:nameU="IsAsync" v:prompt="" v:val="VT0(0):5"/>
				<v:ud v:nameU="IsSelfMessage" v:prompt="" v:val="VT0(0):5"/>
				<v:ud v:nameU="visVersion" v:prompt="" v:val="VT0(15):26"/>
			</v:userDefs>
			<v:textBlock v:margins="rect(4,4,4,4)" v:tabSpace="42.5197"/>
			<v:textRect cx="51.7323" cy="335.811" width="79.37" height="17.6036"/>
			<path d="M0 335.22 L95.99 336.32" class="st6"/>
			<rect v:rectContext="textBkgnd" x="16.9552" y="331.012" width="69.5544" height="9.59985" class="st8"/>
			<text x="16.96" y="338.21" class="st9" v:langID="1031"><v:paragraph v:horizAlign="1"/><v:tabList/>GRPC Call: VerifyUser</text>		</g>
		<g id="shape36-116" v:mID="36" v:groupContext="shape" v:layerMember="0" transform="translate(437.532,-98.7812)">
			<title>Antwortnachricht.36</title>
			<desc>Return UID of user</desc>
			<v:userDefs>
				<v:ud v:nameU="IsReturn" v:prompt="" v:val="VT0(1):5"/>
				<v:ud v:nameU="IsAsync" v:prompt="" v:val="VT0(0):5"/>
				<v:ud v:nameU="IsSelfMessage" v:prompt="" v:val="VT0(0):5"/>
				<v:ud v:nameU="visVersion" v:prompt="" v:val="VT0(15):26"/>
			</v:userDefs>
			<v:textBlock v:margins="rect(4,4,4,4)" v:tabSpace="42.5197"/>
			<v:textRect cx="-50.3876" cy="321.638" width="70.27" height="17.6036"/>
			<path d="M0 321.64 L-100.78 321.64" class="st10"/>
			<rect v:rectContext="textBkgnd" x="-80.616" y="316.838" width="60.4569" height="9.59985" class="st8"/>
			<text x="-80.62" y="324.04" class="st9" v:langID="1031"><v:paragraph v:horizAlign="1"/><v:tabList/>Return UID of user</text>		</g>
		<g id="shape38-123" v:mID="38" v:groupContext="shape" v:layerMember="0" transform="translate(328.253,-81.1791)">
			<title>Antwortnachricht.38</title>
			<desc>Login successfull</desc>
			<v:userDefs>
				<v:ud v:nameU="IsReturn" v:prompt="" v:val="VT0(1):5"/>
				<v:ud v:nameU="IsAsync" v:prompt="" v:val="VT0(0):5"/>
				<v:ud v:nameU="IsSelfMessage" v:prompt="" v:val="VT0(0):5"/>
				<v:ud v:nameU="visVersion" v:prompt="" v:val="VT0(15):26"/>
			</v:userDefs>
			<v:textBlock v:margins="rect(4,4,4,4)" v:tabSpace="42.5197"/>
			<v:textRect cx="-107.717" cy="321.638" width="63.66" height="17.6036"/>
			<path d="M0 322.04 L-215.43 321.24" class="st10"/>
			<rect v:rectContext="textBkgnd" x="-134.64" y="316.838" width="53.8467" height="9.59985" class="st8"/>
			<text x="-134.64" y="324.04" class="st9" v:langID="1031"><v:paragraph v:horizAlign="1"/><v:tabList/>Login successfull</text>		</g>
		<g id="shape39-130" v:mID="39" v:groupContext="shape" v:layerMember="0" transform="translate(104.316,-68.5028)">
			<title>Antwortnachricht.39</title>
			<desc>User logged in</desc>
			<v:userDefs>
				<v:ud v:nameU="IsReturn" v:prompt="" v:val="VT0(1):5"/>
				<v:ud v:nameU="IsAsync" v:prompt="" v:val="VT0(0):5"/>
				<v:ud v:nameU="IsSelfMessage" v:prompt="" v:val="VT0(0):5"/>
				<v:ud v:nameU="visVersion" v:prompt="" v:val="VT0(15):26"/>
			</v:userDefs>
			<v:textBlock v:margins="rect(4,4,4,4)" v:tabSpace="42.5197"/>
			<v:textRect cx="-32.5984" cy="334.076" width="56.27" height="17.6036"/>
			<path d="M0 335.49 L-69.46 336.13" class="st10"/>
			<rect v:rectContext="textBkgnd" x="-55.8266" y="329.276" width="46.4565" height="9.59985" class="st8"/>
			<text x="-55.83" y="336.48" class="st9" v:langID="1031"><v:paragraph v:horizAlign="1"/><v:tabList/>User logged in</text>		</g>
	</g>
</svg>
